<?xml version="1.0" encoding="UTF-8"?>
<svg id="Layer_1" data-name="Layer 1" xmlns="http://www.w3.org/2000/svg" viewBox="0 0 99.81 60.49">
  <defs>
    <style>
      .cls-1 {
        fill: #9a3568;
      }

      .cls-1, .cls-2 {
        fill-rule: evenodd;
      }

      .cls-2 {
        fill: #214695;
      }
    </style>
  </defs>
  <path class="cls-2" d="M15.76,22.03v.51c0,4.87,0,9.73,0,14.6,0,3.99.02,7.99.03,11.98,0,1-.2,1.29-1.06,1.49-1.68.39-3.38.31-5.08.32-1.07,0-2.13.02-3.2.03-.25,0-.52.05-.73-.05-.16-.07-.26-.32-.36-.51-.04-.09,0-.22,0-.34V10.36c0-1.07.28-1.4,1.26-1.4,2.78,0,5.56.02,8.35.02,1.96,0,3.92-.01,5.89-.01,1.32,0,1.8.45,2.16,1.86.14.54.32,1.11.59,1.58,1.66,2.76,2.92,5.76,4.34,8.67.95,1.94,1.89,3.9,2.82,5.84.91,2.63,2.01,4.68,3.47,6.74,2.2-3.7,3.66-7.4,5.89-11.14.88-1.7,1.75-3.41,2.63-5.12,1.24-2.42,2.52-4.81,3.78-7.22.43-.83,1.04-1.23,1.91-1.23,3.97.02,7.93,0,11.9.05,1.18.02,2.36.22,3.54.37.54.07.84.44.84,1.07.01,2.35,0,4.7-.03,7.05-.01.82-.41,1.24-1.15,1.24-2.59,0-5.18,0-7.77-.08-1.26-.04-2.19.44-2.8,1.67-.51,1.04-1.02,2.09-1.53,3.13-4.4,8.96-8.43,18-13.92,26.63-1.46,2.05-5.86,1.64-7.32.41-3.3-3.29-4.39-8.63-6.77-13.17-.67-1.44-1.37-2.87-2.05-4.3-.08-.17-.17-.35-.24-.53-1.4-3.54-3.2-6.84-4.84-10.24-.11-.23-.22-.44-.55-.25"/>
  <path class="cls-2" d="M88.47,29.6c.07.47.33.69.7.79,2.79.76,4.47,2.74,4.96,5.87.37,2.37.55,4.84.02,7.15-.86,3.71-3.02,6.29-6.45,7.07-1.92.44-3.93.52-5.9.55-3.28.05-6.54.04-9.82.03-1.59-.01-3.04.02-4.79-.02-.09,0-.17,0-.32,0,0-.16-.02-.32-.02-.48,0-2.6-.02-5.19-.02-7.79,0-.26,0-.53.03-.79.04-.46.27-.7.7-.7,3.35-.02,6.7-.07,10.06-.07.95,0,1.9.15,2.84.23.13.01.27.03.39-.01,1.95-.75,2.81-3.3,1.82-5.35-.27-.56-.7-.9-1.24-1.01-1.06-.23-2.1-.52-3.2-.5-3.07.04-6.15.02-9.23.02-.16,0-.32,0-.48,0-1.25-.05-1.75-.67-1.75-2.07,0-1.41-.09-2.82-.12-4.22-.01-.42,0-.86.05-1.27.12-.87.58-1.48,1.36-1.59.81-.12,1.64-.15,2.45-.08,2.71.22,5.41.23,8.12.09.51-.03,1.03-.01,1.54-.02,1.09,0,1.47-.34,1.69-1.55.19-1.02.14-2.03-.23-3-.35-.94-.95-1.61-1.86-1.76-.92-.16-1.86-.26-2.79-.27-2.87-.03-5.74-.01-8.61-.01-1.35,0-1.56-.28-1.54-1.8.03-2.2,0-4.4,0-6.61,0-.18,0-.36,0-.54.04-.59.25-.82.78-.83.53,0,1.06.01,1.58.02,2.93,0,5.86-.14,8.78.04,3,.18,6.04.18,8.98,1.02.72.21,1.44.45,2.13.76,1.44.65,2.46,1.81,2.93,3.46.65,2.3,1.19,4.65,1.13,7.1-.03,1.55-.27,3.07-.8,4.52-.66,1.81-1.82,2.99-3.51,3.49-.13.04-.25.09-.38.13"/>
  <path class="cls-2" d="M42.29,51.04c.98-3.87,1.83-8.99,4.22-9.58,4.03-1.23,8.42-.41,12.64-.28,1.47,0,2.93-.02,4.39-.03,1.08,0,1.41.38,1.41,1.6,0,2.28,0,4.57,0,6.85,0,.56-.12,1.25-.3,1.45"/>
  <path class="cls-1" d="M48.77,34.32c1.94-2.71,1.94-7.23,5.45-8.78,1.02,0,2.04.01,3.05.02,1.02,0,2.03,0,3.05,0,1.1,0,2.2-.02,3.29-.02.69,0,.95.28.96,1.02.04,2.28.07,4.57.09,6.85,0,.77-.2,1-.89,1-1.63,0-3.26,0-4.89,0-3.42.08-6.71.08-9.83-.07-.07,0-.14-.01-.29-.03"/>
</svg>